<?xml version="1.0" standalone="no"?>
<!DOCTYPE svg PUBLIC "-//W3C//DTD SVG 1.1//EN" "http://www.w3.org/Graphics/SVG/1.1/DTD/svg11.dtd">
<!--Generator: Xara Designer (www.xara.com), SVG filter version: 6.6.0.0-->
<svg fill="none" fill-rule="evenodd" stroke="black" stroke-width="0.501" stroke-linejoin="bevel" stroke-miterlimit="10" font-family="Times New Roman" font-size="16" style="font-variant-ligatures:none" xmlns:xlink="http://www.w3.org/1999/xlink" xmlns="http://www.w3.org/2000/svg" version="1.1" overflow="visible" width="383.429pt" height="143.71pt" viewBox="348.286 -6345.22 383.429 143.71">
 <defs>
	</defs>
 <g id="Page background" transform="scale(1 -1)"/>
 <g id="MouseOff" transform="scale(1 -1)">
  <g id="Group" fill-rule="nonzero" stroke-linejoin="round" stroke-linecap="round" stroke="none" stroke-width="0.25" fill="#ffffff">
   <g id="Group_1">
    <path d="M 350.671,6338.27 L 357.07,6338.27 L 357.07,6310.44 L 365.231,6310.44 L 365.231,6338.27 L 371.816,6338.27 L 371.816,6345.22 L 350.671,6345.22 L 350.671,6338.27 Z" marker-start="none" marker-end="none"/>
    <path d="M 382.35,6345.22 L 374.98,6345.22 L 374.98,6310.44 L 382.35,6310.44 L 382.35,6328.39 C 382.346,6328.83 382.409,6329.26 382.541,6329.67 C 382.673,6330.09 382.896,6330.43 383.209,6330.7 C 383.521,6330.97 383.947,6331.11 384.485,6331.12 C 385.051,6331.12 385.486,6331.04 385.789,6330.88 C 386.093,6330.71 386.301,6330.46 386.414,6330.13 C 386.526,6329.8 386.58,6329.39 386.573,6328.9 L 386.573,6310.44 L 393.942,6310.44 L 393.942,6331.26 C 393.936,6332.38 393.691,6333.39 393.209,6334.27 C 392.727,6335.15 392.047,6335.85 391.169,6336.36 C 390.29,6336.87 389.253,6337.13 388.057,6337.15 C 387.362,6337.15 386.696,6337.07 386.055,6336.91 C 385.416,6336.74 384.796,6336.46 384.197,6336.05 C 383.598,6335.65 383.014,6335.09 382.442,6334.36 L 382.35,6334.36 L 382.35,6345.22 Z" marker-start="none" marker-end="none"/>
    <path d="M 405.161,6327.08 L 405.161,6328.8 C 405.155,6329.41 405.225,6329.98 405.371,6330.5 C 405.518,6331.03 405.78,6331.45 406.159,6331.78 C 406.538,6332.1 407.072,6332.27 407.761,6332.28 C 408.392,6332.26 408.89,6332.1 409.258,6331.8 C 409.625,6331.49 409.886,6331.14 410.042,6330.73 C 410.198,6330.32 410.273,6329.96 410.269,6329.63 L 410.269,6327.08 L 405.161,6327.08 Z M 417.637,6322.21 L 417.637,6329.63 C 417.626,6331.03 417.351,6332.21 416.812,6333.18 C 416.272,6334.15 415.537,6334.92 414.607,6335.51 C 413.678,6336.1 412.621,6336.52 411.438,6336.78 C 410.255,6337.04 409.014,6337.16 407.715,6337.15 C 405.797,6337.14 404.094,6336.86 402.607,6336.3 C 401.121,6335.74 399.951,6334.81 399.098,6333.51 C 398.245,6332.21 397.809,6330.45 397.793,6328.24 L 397.793,6317.67 C 397.803,6316.19 398.072,6314.93 398.6,6313.9 C 399.127,6312.86 399.851,6312.03 400.771,6311.39 C 401.691,6310.76 402.745,6310.29 403.934,6310.01 C 405.123,6309.72 406.383,6309.59 407.715,6309.6 C 409.855,6309.63 411.662,6310 413.139,6310.71 C 414.616,6311.42 415.717,6312.49 416.441,6313.93 C 417.167,6315.38 417.471,6317.21 417.355,6319.43 L 410.037,6319.43 C 410.01,6318.88 409.984,6318.33 409.957,6317.79 C 409.93,6317.24 409.848,6316.75 409.712,6316.31 C 409.576,6315.87 409.332,6315.52 408.979,6315.27 C 408.627,6315.02 408.113,6314.9 407.437,6314.93 C 406.631,6315 406.048,6315.28 405.689,6315.8 C 405.331,6316.31 405.155,6316.93 405.161,6317.67 L 405.161,6322.21 L 417.637,6322.21 Z" marker-start="none" marker-end="none"/>
    <path d="M 440.914,6338.96 C 441.91,6338.99 442.769,6338.98 443.49,6338.92 C 444.21,6338.86 444.802,6338.69 445.265,6338.43 C 445.728,6338.16 446.07,6337.74 446.292,6337.15 C 446.514,6336.56 446.624,6335.76 446.622,6334.73 C 446.63,6334.01 446.553,6333.32 446.391,6332.67 C 446.228,6332.02 445.934,6331.48 445.509,6331.06 C 445.083,6330.65 444.48,6330.43 443.699,6330.42 L 440.914,6330.42 L 440.914,6338.96 Z M 440.914,6324.16 L 443.606,6324.16 C 444.54,6324.08 445.213,6323.72 445.625,6323.08 C 446.037,6322.43 446.292,6321.57 446.391,6320.5 C 446.491,6319.42 446.534,6318.19 446.518,6316.81 C 446.503,6315.43 446.522,6313.97 446.576,6312.43 C 446.601,6312.09 446.655,6311.75 446.738,6311.42 C 446.821,6311.09 446.922,6310.76 447.04,6310.44 L 455.937,6310.44 L 455.937,6310.9 C 455.756,6311.07 455.604,6311.25 455.479,6311.45 C 455.354,6311.66 455.246,6311.87 455.155,6312.11 C 455.04,6312.68 454.948,6313.44 454.876,6314.37 C 454.805,6315.31 454.745,6316.31 454.697,6317.39 C 454.649,6318.47 454.604,6319.51 454.562,6320.52 C 454.519,6321.52 454.469,6322.38 454.413,6323.09 C 454.326,6324.3 453.92,6325.29 453.196,6326.06 C 452.471,6326.82 451.532,6327.33 450.379,6327.59 L 450.379,6327.68 C 451.512,6328.21 452.393,6328.85 453.022,6329.62 C 453.65,6330.38 454.088,6331.26 454.336,6332.26 C 454.583,6333.26 454.701,6334.38 454.691,6335.62 C 454.691,6337.91 454.32,6339.76 453.578,6341.18 C 452.836,6342.59 451.723,6343.62 450.239,6344.26 C 448.755,6344.91 446.9,6345.23 444.674,6345.22 L 432.753,6345.22 L 432.753,6310.44 L 440.914,6310.44 L 440.914,6324.16 Z" marker-start="none" marker-end="none"/>
    <path d="M 465.73,6327.08 L 465.73,6328.8 C 465.724,6329.41 465.794,6329.98 465.94,6330.5 C 466.087,6331.03 466.349,6331.45 466.728,6331.78 C 467.107,6332.1 467.641,6332.27 468.33,6332.28 C 468.961,6332.26 469.459,6332.1 469.827,6331.8 C 470.194,6331.49 470.455,6331.14 470.611,6330.73 C 470.767,6330.32 470.842,6329.96 470.838,6329.63 L 470.838,6327.08 L 465.73,6327.08 Z M 478.206,6322.21 L 478.206,6329.63 C 478.195,6331.03 477.92,6332.21 477.381,6333.18 C 476.841,6334.15 476.106,6334.92 475.176,6335.51 C 474.247,6336.1 473.19,6336.52 472.007,6336.78 C 470.824,6337.04 469.583,6337.16 468.284,6337.15 C 466.366,6337.14 464.663,6336.86 463.176,6336.3 C 461.69,6335.74 460.52,6334.81 459.667,6333.51 C 458.814,6332.21 458.378,6330.45 458.362,6328.24 L 458.362,6317.67 C 458.372,6316.19 458.641,6314.93 459.169,6313.9 C 459.696,6312.86 460.42,6312.03 461.34,6311.39 C 462.26,6310.76 463.314,6310.29 464.503,6310.01 C 465.692,6309.72 466.952,6309.59 468.284,6309.6 C 470.424,6309.63 472.231,6310 473.708,6310.71 C 475.185,6311.42 476.286,6312.49 477.01,6313.93 C 477.736,6315.38 478.04,6317.21 477.924,6319.43 L 470.606,6319.43 C 470.579,6318.88 470.553,6318.33 470.526,6317.79 C 470.499,6317.24 470.417,6316.75 470.281,6316.31 C 470.145,6315.87 469.901,6315.52 469.548,6315.27 C 469.196,6315.02 468.682,6314.9 468.006,6314.93 C 467.2,6315 466.617,6315.28 466.258,6315.8 C 465.9,6316.31 465.724,6316.93 465.73,6317.67 L 465.73,6322.21 L 478.206,6322.21 Z" marker-start="none" marker-end="none"/>
    <path d="M 493.741,6318.97 C 493.733,6318.4 493.655,6317.81 493.507,6317.21 C 493.358,6316.61 493.091,6316.1 492.706,6315.68 C 492.32,6315.27 491.768,6315.05 491.049,6315.03 C 490.161,6315.05 489.483,6315.31 489.014,6315.82 C 488.545,6316.32 488.309,6316.99 488.305,6317.81 C 488.319,6318.68 488.489,6319.38 488.816,6319.9 C 489.143,6320.42 489.546,6320.84 490.024,6321.15 C 490.492,6321.49 491.042,6321.79 491.674,6322.07 C 492.305,6322.34 492.994,6322.67 493.741,6323.05 L 493.741,6318.97 Z M 494.529,6310.44 L 501.712,6310.44 C 501.546,6310.9 501.405,6311.38 501.289,6311.86 C 501.175,6312.34 501.115,6312.83 501.11,6313.32 L 501.11,6329.22 C 501.123,6331.11 500.804,6332.64 500.155,6333.81 C 499.507,6334.97 498.453,6335.82 496.995,6336.36 C 495.537,6336.89 493.601,6337.15 491.186,6337.15 C 489.695,6337.15 488.329,6336.99 487.088,6336.66 C 485.847,6336.34 484.772,6335.82 483.861,6335.11 C 482.952,6334.39 482.268,6333.46 481.81,6332.33 C 481.353,6331.19 481.156,6329.81 481.22,6328.19 L 488.588,6328.19 C 488.617,6328.93 488.683,6329.6 488.786,6330.21 C 488.889,6330.82 489.133,6331.31 489.52,6331.67 C 489.906,6332.04 490.54,6332.22 491.42,6332.23 C 491.916,6332.23 492.337,6332.1 492.682,6331.85 C 493.027,6331.61 493.289,6331.28 493.469,6330.88 C 493.649,6330.47 493.74,6330.03 493.741,6329.54 C 493.733,6328.86 493.549,6328.3 493.19,6327.87 C 492.832,6327.44 492.348,6327.09 491.739,6326.81 C 491.131,6326.54 490.447,6326.3 489.688,6326.08 C 488.929,6325.87 488.146,6325.63 487.337,6325.37 C 486.517,6325.11 485.724,6324.78 484.959,6324.37 C 484.195,6323.96 483.507,6323.43 482.896,6322.77 C 482.285,6322.11 481.8,6321.28 481.441,6320.27 C 481.083,6319.26 480.9,6318.02 480.891,6316.55 C 480.898,6315.17 481.173,6313.96 481.718,6312.92 C 482.264,6311.88 483.041,6311.07 484.049,6310.49 C 485.058,6309.9 486.26,6309.61 487.657,6309.6 C 488.621,6309.6 489.467,6309.72 490.193,6309.97 C 490.919,6310.21 491.586,6310.56 492.194,6311.03 C 492.801,6311.5 493.41,6312.07 494.019,6312.75 L 494.529,6310.44 Z" marker-start="none" marker-end="none"/>
    <path d="M 513.121,6310.44 L 513.121,6345.22 L 505.753,6345.22 L 505.753,6310.44 L 513.121,6310.44 Z" marker-start="none" marker-end="none"/>
    <path d="M 548.817,6310.44 L 548.817,6317.39 L 537.734,6317.39 L 537.734,6324.91 L 547.936,6324.91 L 547.936,6331.86 L 537.734,6331.86 L 537.734,6338.27 L 548.261,6338.27 L 548.261,6345.22 L 529.573,6345.22 L 529.573,6310.44 L 548.817,6310.44 Z" marker-start="none" marker-end="none"/>
    <path d="M 570.294,6328.71 C 570.354,6330.15 570.156,6331.39 569.698,6332.45 C 569.24,6333.51 568.577,6334.39 567.71,6335.08 C 566.844,6335.78 565.827,6336.29 564.661,6336.63 C 563.496,6336.98 562.235,6337.15 560.88,6337.15 C 559.582,6337.15 558.357,6336.99 557.206,6336.68 C 556.054,6336.37 555.035,6335.89 554.146,6335.24 C 553.258,6334.59 552.56,6333.76 552.052,6332.75 C 551.545,6331.73 551.286,6330.53 551.276,6329.13 C 551.275,6328.18 551.427,6327.31 551.734,6326.52 C 552.04,6325.72 552.505,6324.97 553.131,6324.26 C 553.922,6323.39 554.86,6322.65 555.943,6322.05 C 557.027,6321.45 558.147,6320.9 559.303,6320.42 C 560.459,6319.93 561.542,6319.44 562.551,6318.92 C 562.856,6318.69 563.094,6318.39 563.265,6318.05 C 563.436,6317.7 563.523,6317.33 563.526,6316.93 C 563.514,6316.09 563.271,6315.48 562.795,6315.07 C 562.319,6314.67 561.68,6314.47 560.879,6314.47 C 560.325,6314.47 559.87,6314.59 559.512,6314.82 C 559.155,6315.04 558.884,6315.34 558.7,6315.72 C 558.495,6316.12 558.36,6316.55 558.294,6317.01 C 558.229,6317.46 558.209,6317.92 558.236,6318.36 L 551.186,6318.36 C 551.11,6316.28 551.469,6314.6 552.265,6313.31 C 553.061,6312.02 554.197,6311.08 555.674,6310.48 C 557.15,6309.89 558.871,6309.59 560.835,6309.6 C 562.201,6309.6 563.476,6309.76 564.661,6310.07 C 565.846,6310.39 566.887,6310.89 567.786,6311.55 C 568.685,6312.22 569.388,6313.07 569.894,6314.12 C 570.401,6315.16 570.658,6316.41 570.667,6317.85 C 570.653,6319.38 570.361,6320.65 569.789,6321.65 C 569.218,6322.65 568.453,6323.49 567.497,6324.15 C 566.54,6324.82 565.477,6325.4 564.309,6325.9 C 563.14,6326.41 561.951,6326.93 560.742,6327.46 C 560.362,6327.64 560,6327.85 559.655,6328.08 C 559.31,6328.31 559.027,6328.59 558.806,6328.92 C 558.585,6329.24 558.471,6329.64 558.464,6330.1 C 558.476,6330.86 558.706,6331.41 559.155,6331.76 C 559.603,6332.11 560.194,6332.28 560.927,6332.28 C 561.523,6332.27 561.98,6332.17 562.298,6331.96 C 562.615,6331.76 562.839,6331.49 562.971,6331.16 C 563.125,6330.81 563.225,6330.43 563.268,6330.01 C 563.312,6329.59 563.352,6329.15 563.39,6328.71 L 570.294,6328.71 Z" marker-start="none" marker-end="none"/>
    <path d="M 574.689,6331.08 L 574.689,6316.02 C 574.696,6314.06 575.225,6312.58 576.276,6311.57 C 577.326,6310.57 578.851,6310.07 580.852,6310.07 C 581.661,6310.07 582.455,6310.11 583.234,6310.19 C 584.013,6310.27 584.796,6310.36 585.582,6310.48 L 585.582,6315.68 C 585.325,6315.68 585.106,6315.68 584.923,6315.69 C 584.741,6315.69 584.556,6315.68 584.369,6315.67 C 584.181,6315.66 583.952,6315.63 583.68,6315.59 C 583.186,6315.57 582.794,6315.68 582.504,6315.93 C 582.213,6316.18 582.064,6316.67 582.057,6317.39 L 582.057,6331.08 L 585.582,6331.08 L 585.582,6336.41 L 582.057,6336.41 L 582.057,6343.83 L 574.689,6343.83 L 574.689,6336.41 L 571.767,6336.41 L 571.767,6331.08 L 574.689,6331.08 Z" marker-start="none" marker-end="none"/>
    <path d="M 600.615,6318.97 C 600.607,6318.4 600.529,6317.81 600.381,6317.21 C 600.232,6316.61 599.965,6316.1 599.58,6315.68 C 599.194,6315.27 598.642,6315.05 597.923,6315.03 C 597.035,6315.05 596.357,6315.31 595.888,6315.82 C 595.419,6316.32 595.183,6316.99 595.179,6317.81 C 595.193,6318.68 595.363,6319.38 595.69,6319.9 C 596.017,6320.42 596.42,6320.84 596.898,6321.15 C 597.366,6321.49 597.916,6321.79 598.548,6322.07 C 599.179,6322.34 599.868,6322.67 600.615,6323.05 L 600.615,6318.97 Z M 601.403,6310.44 L 608.586,6310.44 C 608.42,6310.9 608.279,6311.38 608.163,6311.86 C 608.049,6312.34 607.989,6312.83 607.984,6313.32 L 607.984,6329.22 C 607.997,6331.11 607.678,6332.64 607.029,6333.81 C 606.381,6334.97 605.327,6335.82 603.869,6336.36 C 602.411,6336.89 600.475,6337.15 598.06,6337.15 C 596.569,6337.15 595.203,6336.99 593.962,6336.66 C 592.721,6336.34 591.646,6335.82 590.735,6335.11 C 589.826,6334.39 589.142,6333.46 588.684,6332.33 C 588.227,6331.19 588.03,6329.81 588.094,6328.19 L 595.462,6328.19 C 595.491,6328.93 595.557,6329.6 595.66,6330.21 C 595.763,6330.82 596.007,6331.31 596.394,6331.67 C 596.78,6332.04 597.414,6332.22 598.294,6332.23 C 598.79,6332.23 599.211,6332.1 599.556,6331.85 C 599.901,6331.61 600.163,6331.28 600.343,6330.88 C 600.523,6330.47 600.614,6330.03 600.615,6329.54 C 600.607,6328.86 600.423,6328.3 600.064,6327.87 C 599.706,6327.44 599.222,6327.09 598.613,6326.81 C 598.005,6326.54 597.321,6326.3 596.562,6326.08 C 595.803,6325.87 595.02,6325.63 594.211,6325.37 C 593.391,6325.11 592.598,6324.78 591.833,6324.37 C 591.069,6323.96 590.381,6323.43 589.77,6322.77 C 589.159,6322.11 588.674,6321.28 588.315,6320.27 C 587.957,6319.26 587.774,6318.02 587.765,6316.55 C 587.772,6315.17 588.047,6313.96 588.592,6312.92 C 589.138,6311.88 589.915,6311.07 590.923,6310.49 C 591.932,6309.9 593.134,6309.61 594.531,6309.6 C 595.495,6309.6 596.341,6309.72 597.067,6309.97 C 597.793,6310.21 598.46,6310.56 599.068,6311.03 C 599.675,6311.5 600.284,6312.07 600.893,6312.75 L 601.403,6310.44 Z" marker-start="none" marker-end="none"/>
    <path d="M 613.318,6331.08 L 613.318,6316.02 C 613.325,6314.06 613.854,6312.58 614.905,6311.57 C 615.955,6310.57 617.48,6310.07 619.481,6310.07 C 620.29,6310.07 621.084,6310.11 621.863,6310.19 C 622.642,6310.27 623.425,6310.36 624.211,6310.48 L 624.211,6315.68 C 623.954,6315.68 623.735,6315.68 623.552,6315.69 C 623.37,6315.69 623.185,6315.68 622.998,6315.67 C 622.81,6315.66 622.581,6315.63 622.309,6315.59 C 621.815,6315.57 621.423,6315.68 621.133,6315.93 C 620.842,6316.18 620.693,6316.67 620.686,6317.39 L 620.686,6331.08 L 624.211,6331.08 L 624.211,6336.41 L 620.686,6336.41 L 620.686,6343.83 L 613.318,6343.83 L 613.318,6336.41 L 610.396,6336.41 L 610.396,6331.08 L 613.318,6331.08 Z" marker-start="none" marker-end="none"/>
    <path d="M 634.419,6327.08 L 634.419,6328.8 C 634.413,6329.41 634.483,6329.98 634.629,6330.5 C 634.776,6331.03 635.038,6331.45 635.417,6331.78 C 635.796,6332.1 636.33,6332.27 637.019,6332.28 C 637.65,6332.26 638.148,6332.1 638.516,6331.8 C 638.883,6331.49 639.144,6331.14 639.3,6330.73 C 639.456,6330.32 639.531,6329.96 639.527,6329.63 L 639.527,6327.08 L 634.419,6327.08 Z M 646.895,6322.21 L 646.895,6329.63 C 646.884,6331.03 646.609,6332.21 646.07,6333.18 C 645.53,6334.15 644.795,6334.92 643.865,6335.51 C 642.936,6336.1 641.879,6336.52 640.696,6336.78 C 639.513,6337.04 638.272,6337.16 636.973,6337.15 C 635.055,6337.14 633.352,6336.86 631.865,6336.3 C 630.379,6335.74 629.209,6334.81 628.356,6333.51 C 627.503,6332.21 627.067,6330.45 627.051,6328.24 L 627.051,6317.67 C 627.061,6316.19 627.33,6314.93 627.858,6313.9 C 628.385,6312.86 629.109,6312.03 630.029,6311.39 C 630.949,6310.76 632.003,6310.29 633.192,6310.01 C 634.381,6309.72 635.641,6309.59 636.973,6309.6 C 639.113,6309.63 640.92,6310 642.397,6310.71 C 643.874,6311.42 644.975,6312.49 645.699,6313.93 C 646.425,6315.38 646.729,6317.21 646.613,6319.43 L 639.295,6319.43 C 639.268,6318.88 639.242,6318.33 639.215,6317.79 C 639.188,6317.24 639.106,6316.75 638.97,6316.31 C 638.834,6315.87 638.59,6315.52 638.237,6315.27 C 637.885,6315.02 637.371,6314.9 636.695,6314.93 C 635.889,6315 635.306,6315.28 634.947,6315.8 C 634.589,6316.31 634.413,6316.93 634.419,6317.67 L 634.419,6322.21 L 646.895,6322.21 Z" marker-start="none" marker-end="none"/>
    <path d="M 674.023,6318.97 C 674.015,6318.4 673.937,6317.81 673.789,6317.21 C 673.64,6316.61 673.373,6316.1 672.988,6315.68 C 672.602,6315.27 672.05,6315.05 671.331,6315.03 C 670.443,6315.05 669.765,6315.31 669.296,6315.82 C 668.827,6316.32 668.591,6316.99 668.587,6317.81 C 668.601,6318.68 668.771,6319.38 669.098,6319.9 C 669.425,6320.42 669.828,6320.84 670.306,6321.15 C 670.774,6321.49 671.324,6321.79 671.956,6322.07 C 672.587,6322.34 673.276,6322.67 674.023,6323.05 L 674.023,6318.97 Z M 674.811,6310.44 L 681.994,6310.44 C 681.828,6310.9 681.687,6311.38 681.571,6311.86 C 681.457,6312.34 681.397,6312.83 681.392,6313.32 L 681.392,6329.22 C 681.405,6331.11 681.086,6332.64 680.437,6333.81 C 679.789,6334.97 678.735,6335.82 677.277,6336.36 C 675.819,6336.89 673.883,6337.15 671.468,6337.15 C 669.977,6337.15 668.611,6336.99 667.37,6336.66 C 666.129,6336.34 665.054,6335.82 664.143,6335.11 C 663.234,6334.39 662.55,6333.46 662.092,6332.33 C 661.635,6331.19 661.438,6329.81 661.502,6328.19 L 668.87,6328.19 C 668.899,6328.93 668.965,6329.6 669.068,6330.21 C 669.171,6330.82 669.415,6331.31 669.802,6331.67 C 670.188,6332.04 670.822,6332.22 671.702,6332.23 C 672.198,6332.23 672.619,6332.1 672.964,6331.85 C 673.309,6331.61 673.571,6331.28 673.751,6330.88 C 673.931,6330.47 674.022,6330.03 674.023,6329.54 C 674.015,6328.86 673.831,6328.3 673.472,6327.87 C 673.114,6327.44 672.63,6327.09 672.021,6326.81 C 671.413,6326.54 670.729,6326.3 669.97,6326.08 C 669.211,6325.87 668.428,6325.63 667.619,6325.37 C 666.799,6325.11 666.006,6324.78 665.241,6324.37 C 664.477,6323.96 663.789,6323.43 663.178,6322.77 C 662.567,6322.11 662.082,6321.28 661.723,6320.27 C 661.365,6319.26 661.182,6318.02 661.173,6316.55 C 661.18,6315.17 661.455,6313.96 662,6312.92 C 662.546,6311.88 663.323,6311.07 664.331,6310.49 C 665.34,6309.9 666.542,6309.61 667.939,6309.6 C 668.903,6309.6 669.749,6309.72 670.475,6309.97 C 671.201,6310.21 671.868,6310.56 672.476,6311.03 C 673.083,6311.5 673.692,6312.07 674.301,6312.75 L 674.811,6310.44 Z" marker-start="none" marker-end="none"/>
    <path d="M 685.525,6336.41 L 685.525,6310.44 L 692.894,6310.44 L 692.894,6328.99 C 692.896,6329.66 693.066,6330.18 693.404,6330.54 C 693.743,6330.9 694.237,6331.1 694.888,6331.12 C 695.348,6331.15 695.715,6331.07 695.99,6330.88 C 696.265,6330.69 696.468,6330.43 696.598,6330.1 C 696.729,6329.77 696.808,6329.4 696.835,6328.99 L 696.835,6310.44 L 704.204,6310.44 L 704.204,6331.73 C 704.187,6332.9 703.876,6333.89 703.27,6334.69 C 702.665,6335.5 701.866,6336.11 700.874,6336.52 C 699.882,6336.94 698.798,6337.14 697.623,6337.15 C 696.842,6337.13 696.106,6336.94 695.413,6336.55 C 694.72,6336.17 694.117,6335.68 693.605,6335.08 C 693.093,6334.47 692.717,6333.83 692.477,6333.16 L 692.384,6333.16 L 692.384,6336.41 L 685.525,6336.41 Z" marker-start="none" marker-end="none"/>
    <path d="M 715.706,6326.53 C 715.7,6326.96 715.708,6327.43 715.729,6327.95 C 715.751,6328.47 715.826,6328.97 715.955,6329.45 C 716.085,6329.93 716.308,6330.33 716.626,6330.64 C 716.943,6330.95 717.394,6331.11 717.978,6331.12 C 718.427,6331.13 718.793,6330.98 719.075,6330.69 C 719.357,6330.41 719.572,6330.02 719.723,6329.54 C 719.874,6329.06 719.978,6328.53 720.033,6327.96 C 720.089,6327.39 720.115,6326.82 720.112,6326.25 L 720.112,6320.13 C 720.121,6319.29 720.072,6318.53 719.966,6317.85 C 719.86,6317.18 719.643,6316.64 719.315,6316.24 C 718.987,6315.85 718.495,6315.64 717.839,6315.63 C 717.312,6315.64 716.901,6315.79 716.607,6316.07 C 716.312,6316.35 716.1,6316.71 715.973,6317.15 C 715.845,6317.58 715.768,6318.04 715.74,6318.51 C 715.712,6318.98 715.7,6319.42 715.706,6319.81 L 715.706,6326.53 Z M 727.481,6310.44 L 727.481,6345.22 L 720.112,6345.22 L 720.112,6334.04 L 720.019,6334.04 C 719.247,6335.16 718.403,6335.96 717.486,6336.44 C 716.57,6336.92 715.621,6337.16 714.64,6337.15 C 713.429,6337.13 712.417,6336.86 711.603,6336.33 C 710.789,6335.8 710.143,6335.1 709.664,6334.23 C 709.186,6333.35 708.844,6332.4 708.638,6331.36 C 708.432,6330.32 708.332,6329.28 708.338,6328.25 L 708.338,6319.25 C 708.329,6318.13 708.412,6317.02 708.588,6315.91 C 708.763,6314.79 709.081,6313.77 709.543,6312.84 C 710.003,6311.91 710.657,6311.15 711.505,6310.57 C 712.353,6309.98 713.444,6309.66 714.779,6309.6 C 715.512,6309.6 716.232,6309.75 716.94,6310.04 C 717.648,6310.34 718.31,6310.77 718.925,6311.34 C 719.54,6311.91 720.075,6312.61 720.529,6313.45 L 720.622,6313.45 L 720.622,6310.44 L 727.481,6310.44 Z" marker-start="none" marker-end="none"/>
   </g>
   <g id="Group_2">
    <path d="M 356.447,6292.59 L 357.329,6292.59 C 357.981,6292.59 358.579,6292.58 359.121,6292.55 C 359.664,6292.52 360.134,6292.44 360.532,6292.31 C 360.989,6292.08 361.328,6291.73 361.548,6291.27 C 361.768,6290.81 361.91,6290.31 361.976,6289.77 C 362.041,6289.23 362.071,6288.73 362.063,6288.27 C 362.073,6287.66 362.007,6287.03 361.866,6286.4 C 361.725,6285.78 361.45,6285.23 361.042,6284.75 C 360.605,6284.42 360.129,6284.19 359.613,6284.08 C 359.099,6283.96 358.571,6283.9 358.03,6283.89 C 357.489,6283.88 356.962,6283.87 356.447,6283.87 L 356.447,6292.59 Z M 356.447,6264.07 L 356.447,6277.61 C 357.473,6277.64 358.511,6277.65 359.562,6277.65 C 360.613,6277.64 361.651,6277.71 362.676,6277.84 C 363.701,6277.98 364.687,6278.27 365.634,6278.72 C 366.859,6279.31 367.805,6280.12 368.473,6281.16 C 369.141,6282.2 369.603,6283.35 369.859,6284.61 C 370.115,6285.87 370.237,6287.14 370.225,6288.41 C 370.232,6289.36 370.176,6290.27 370.058,6291.15 C 369.94,6292.04 369.716,6292.88 369.386,6293.69 C 369.057,6294.5 368.579,6295.26 367.953,6295.97 C 367.375,6296.61 366.684,6297.13 365.879,6297.52 C 365.075,6297.9 364.214,6298.19 363.297,6298.38 C 362.38,6298.57 361.464,6298.7 360.549,6298.76 C 359.634,6298.82 358.777,6298.85 357.979,6298.85 L 348.286,6298.85 L 348.286,6264.07 L 356.447,6264.07 Z" marker-start="none" marker-end="none"/>
    <path d="M 373.566,6290.04 L 373.566,6264.07 L 380.935,6264.07 L 380.935,6280.07 C 380.977,6280.77 381.108,6281.31 381.327,6281.68 C 381.545,6282.05 381.871,6282.3 382.306,6282.44 C 382.74,6282.57 383.303,6282.63 383.996,6282.62 C 384.366,6282.62 384.737,6282.61 385.108,6282.58 C 385.479,6282.55 385.85,6282.51 386.221,6282.44 L 386.221,6290.77 C 385.202,6290.77 384.318,6290.57 383.568,6290.18 C 382.818,6289.78 382.19,6289.24 381.687,6288.54 C 381.184,6287.84 380.794,6287.02 380.518,6286.09 L 380.425,6286.09 L 380.425,6290.04 L 373.566,6290.04 Z" marker-start="none" marker-end="none"/>
    <path d="M 389.009,6271.3 C 389.018,6269.82 389.272,6268.56 389.772,6267.53 C 390.272,6266.5 390.965,6265.67 391.848,6265.04 C 392.733,6264.4 393.755,6263.94 394.916,6263.65 C 396.077,6263.37 397.323,6263.23 398.654,6263.23 C 400.533,6263.22 402.171,6263.48 403.567,6264.01 C 404.963,6264.54 406.068,6265.4 406.881,6266.59 C 407.695,6267.77 408.167,6269.34 408.299,6271.3 L 408.299,6281.87 C 408.303,6284.8 407.507,6287.01 405.912,6288.51 C 404.316,6290.01 401.897,6290.77 398.654,6290.77 C 396.739,6290.79 395.06,6290.51 393.618,6289.95 C 392.175,6289.39 391.05,6288.45 390.241,6287.15 C 389.433,6285.84 389.022,6284.08 389.009,6281.87 L 389.009,6271.3 Z M 396.378,6282.43 C 396.374,6282.99 396.444,6283.5 396.586,6283.95 C 396.729,6284.4 396.967,6284.76 397.3,6285.03 C 397.633,6285.3 398.085,6285.44 398.654,6285.44 C 399.223,6285.44 399.675,6285.3 400.008,6285.03 C 400.341,6284.76 400.579,6284.4 400.722,6283.95 C 400.864,6283.5 400.934,6282.99 400.93,6282.43 L 400.93,6270.83 C 400.87,6270.09 400.665,6269.52 400.315,6269.14 C 399.965,6268.76 399.411,6268.56 398.654,6268.56 C 397.897,6268.56 397.343,6268.76 396.993,6269.14 C 396.643,6269.52 396.438,6270.09 396.378,6270.83 L 396.378,6282.43 Z" marker-start="none" marker-end="none"/>
    <path d="M 424.116,6273.75 C 424.123,6273.32 424.116,6272.85 424.094,6272.34 C 424.072,6271.83 423.996,6271.34 423.866,6270.88 C 423.737,6270.41 423.513,6270.02 423.195,6269.72 C 422.877,6269.42 422.425,6269.26 421.84,6269.25 C 421.242,6269.25 420.777,6269.49 420.444,6269.97 C 420.113,6270.45 419.881,6271.06 419.751,6271.79 C 419.621,6272.52 419.558,6273.27 419.564,6274.03 L 419.564,6280.16 C 419.557,6281 419.617,6281.77 419.746,6282.46 C 419.874,6283.15 420.115,6283.7 420.466,6284.12 C 420.817,6284.53 421.321,6284.74 421.979,6284.75 C 422.508,6284.74 422.92,6284.59 423.215,6284.3 C 423.51,6284.01 423.721,6283.64 423.85,6283.19 C 423.977,6282.74 424.055,6282.28 424.083,6281.79 C 424.111,6281.31 424.122,6280.88 424.116,6280.48 L 424.116,6273.75 Z M 412.195,6290.04 L 412.195,6255.35 L 419.564,6255.35 L 419.564,6266.52 L 419.657,6266.52 C 420.24,6265.67 420.864,6265.01 421.528,6264.52 C 422.193,6264.04 422.834,6263.69 423.451,6263.49 C 424.069,6263.3 424.6,6263.21 425.043,6263.23 C 426.379,6263.29 427.47,6263.61 428.318,6264.19 C 429.166,6264.78 429.819,6265.53 430.28,6266.47 C 430.741,6267.4 431.059,6268.42 431.234,6269.53 C 431.41,6270.64 431.494,6271.75 431.485,6272.87 L 431.485,6281.87 C 431.491,6282.91 431.39,6283.95 431.185,6284.99 C 430.979,6286.03 430.637,6286.98 430.159,6287.85 C 429.68,6288.73 429.034,6289.43 428.22,6289.96 C 427.406,6290.49 426.394,6290.76 425.182,6290.77 C 423.904,6290.73 422.759,6290.4 421.747,6289.77 C 420.735,6289.13 419.868,6288.17 419.147,6286.88 L 419.054,6286.88 L 419.054,6290.04 L 412.195,6290.04 Z" marker-start="none" marker-end="none"/>
    <path d="M 442.568,6280.71 L 442.568,6282.43 C 442.562,6283.04 442.632,6283.61 442.778,6284.13 C 442.925,6284.66 443.187,6285.08 443.566,6285.41 C 443.945,6285.73 444.479,6285.9 445.168,6285.9 C 445.799,6285.89 446.297,6285.73 446.665,6285.43 C 447.032,6285.12 447.293,6284.77 447.449,6284.36 C 447.605,6283.95 447.68,6283.59 447.676,6283.26 L 447.676,6280.71 L 442.568,6280.71 Z M 455.044,6275.84 L 455.044,6283.26 C 455.033,6284.66 454.758,6285.84 454.219,6286.81 C 453.679,6287.77 452.944,6288.55 452.014,6289.14 C 451.085,6289.73 450.028,6290.15 448.845,6290.41 C 447.662,6290.67 446.421,6290.79 445.122,6290.77 C 443.204,6290.77 441.501,6290.49 440.014,6289.93 C 438.528,6289.36 437.358,6288.43 436.505,6287.14 C 435.652,6285.84 435.216,6284.08 435.2,6281.87 L 435.2,6271.3 C 435.21,6269.82 435.479,6268.56 436.007,6267.53 C 436.534,6266.49 437.258,6265.66 438.178,6265.02 C 439.098,6264.38 440.152,6263.92 441.341,6263.64 C 442.53,6263.35 443.79,6263.21 445.122,6263.23 C 447.262,6263.26 449.069,6263.62 450.546,6264.34 C 452.023,6265.04 453.124,6266.12 453.848,6267.56 C 454.574,6269 454.878,6270.83 454.762,6273.05 L 447.444,6273.05 C 447.417,6272.5 447.391,6271.96 447.364,6271.42 C 447.337,6270.87 447.255,6270.38 447.119,6269.94 C 446.983,6269.5 446.739,6269.15 446.386,6268.9 C 446.034,6268.65 445.52,6268.53 444.844,6268.56 C 444.038,6268.63 443.455,6268.91 443.096,6269.42 C 442.738,6269.94 442.562,6270.56 442.568,6271.3 L 442.568,6275.84 L 455.044,6275.84 Z" marker-start="none" marker-end="none"/>
    <path d="M 458.567,6290.04 L 458.567,6264.07 L 465.936,6264.07 L 465.936,6280.07 C 465.978,6280.77 466.109,6281.31 466.328,6281.68 C 466.546,6282.05 466.872,6282.3 467.307,6282.44 C 467.741,6282.57 468.304,6282.63 468.997,6282.62 C 469.367,6282.62 469.738,6282.61 470.109,6282.58 C 470.48,6282.55 470.851,6282.51 471.222,6282.44 L 471.222,6290.77 C 470.203,6290.77 469.319,6290.57 468.569,6290.18 C 467.819,6289.78 467.191,6289.24 466.688,6288.54 C 466.185,6287.84 465.795,6287.02 465.519,6286.09 L 465.426,6286.09 L 465.426,6290.04 L 458.567,6290.04 Z" marker-start="none" marker-end="none"/>
    <path d="M 475.539,6284.7 L 475.539,6269.65 C 475.546,6267.69 476.075,6266.2 477.126,6265.2 C 478.176,6264.2 479.701,6263.7 481.702,6263.69 C 482.511,6263.7 483.305,6263.74 484.084,6263.82 C 484.863,6263.89 485.646,6263.99 486.432,6264.11 L 486.432,6269.31 C 486.175,6269.31 485.956,6269.31 485.773,6269.31 C 485.591,6269.32 485.406,6269.31 485.219,6269.3 C 485.031,6269.29 484.802,6269.26 484.53,6269.21 C 484.036,6269.2 483.644,6269.31 483.354,6269.56 C 483.063,6269.81 482.914,6270.3 482.907,6271.02 L 482.907,6284.7 L 486.432,6284.7 L 486.432,6290.04 L 482.907,6290.04 L 482.907,6297.46 L 475.539,6297.46 L 475.539,6290.04 L 472.617,6290.04 L 472.617,6284.7 L 475.539,6284.7 Z" marker-start="none" marker-end="none"/>
    <path d="M 495.208,6290.04 L 487.789,6290.04 L 492.936,6266.56 C 493.034,6266.15 493.147,6265.68 493.276,6265.15 C 493.405,6264.62 493.518,6264.09 493.616,6263.57 C 493.714,6263.04 493.765,6262.57 493.77,6262.16 C 493.758,6261.82 493.624,6261.55 493.369,6261.34 C 493.113,6261.13 492.815,6260.99 492.472,6260.91 C 492.129,6260.83 491.82,6260.81 491.545,6260.86 C 491.311,6260.91 491.071,6260.94 490.826,6260.97 C 490.581,6261 490.341,6261.02 490.107,6261.05 L 490.107,6255.58 C 490.473,6255.57 490.89,6255.53 491.359,6255.47 C 491.829,6255.4 492.385,6255.36 493.028,6255.35 C 494.629,6255.35 495.945,6255.56 496.976,6255.97 C 498.007,6256.39 498.833,6256.97 499.456,6257.72 C 500.078,6258.48 500.577,6259.38 500.951,6260.41 C 501.325,6261.45 501.655,6262.6 501.94,6263.85 C 502.226,6265.11 502.548,6266.44 502.905,6267.85 L 507.588,6290.04 L 500.355,6290.04 L 497.805,6273.27 L 497.712,6273.27 L 495.208,6290.04 Z" marker-start="none" marker-end="none"/>
    <path d="M 520.417,6275.7 L 520.417,6271.99 C 520.415,6270.84 520.618,6269.73 521.027,6268.69 C 521.436,6267.64 522.07,6266.71 522.927,6265.89 C 523.785,6265.07 524.885,6264.43 526.228,6263.95 C 527.57,6263.48 529.173,6263.24 531.037,6263.23 C 534.436,6263.24 537.029,6264.14 538.816,6265.92 C 540.604,6267.7 541.505,6270.26 541.518,6273.62 C 541.516,6275.02 541.397,6276.23 541.159,6277.25 C 540.922,6278.28 540.579,6279.17 540.13,6279.92 C 539.681,6280.67 539.139,6281.34 538.503,6281.92 C 537.868,6282.5 537.155,6283.04 536.366,6283.54 C 535.578,6284.05 534.725,6284.56 533.807,6285.09 C 532.89,6285.61 531.92,6286.19 530.898,6286.84 C 530.353,6287.2 529.883,6287.58 529.488,6287.97 C 529.094,6288.37 528.802,6288.82 528.614,6289.32 C 528.426,6289.82 528.368,6290.41 528.441,6291.1 C 528.535,6291.88 528.821,6292.47 529.298,6292.89 C 529.776,6293.31 530.433,6293.48 531.269,6293.42 C 531.934,6293.37 532.448,6293.18 532.81,6292.85 C 533.174,6292.52 533.433,6292.11 533.587,6291.61 C 533.742,6291.12 533.838,6290.59 533.877,6290.03 C 533.916,6289.47 533.943,6288.93 533.958,6288.41 L 541.472,6288.41 C 541.592,6290.61 541.279,6292.55 540.532,6294.24 C 539.785,6295.93 538.623,6297.25 537.047,6298.21 C 535.47,6299.17 533.498,6299.66 531.13,6299.68 C 529.018,6299.68 527.198,6299.31 525.67,6298.57 C 524.142,6297.84 522.965,6296.74 522.137,6295.27 C 521.31,6293.81 520.891,6291.99 520.882,6289.8 C 520.888,6288.29 521.096,6286.96 521.508,6285.84 C 521.919,6284.72 522.499,6283.72 523.247,6282.85 C 524.017,6281.98 524.923,6281.18 525.965,6280.45 C 527.008,6279.73 528.158,6279.01 529.414,6278.3 C 530.142,6277.88 530.851,6277.44 531.54,6276.99 C 532.229,6276.54 532.801,6275.99 533.254,6275.36 C 533.706,6274.73 533.941,6273.93 533.958,6272.97 C 533.959,6272.37 533.863,6271.81 533.671,6271.28 C 533.478,6270.76 533.18,6270.33 532.776,6270 C 532.372,6269.67 531.855,6269.5 531.223,6269.49 C 530.365,6269.5 529.7,6269.67 529.227,6270.02 C 528.754,6270.36 528.426,6270.82 528.241,6271.39 C 528.057,6271.95 527.969,6272.57 527.977,6273.24 L 527.977,6275.7 L 520.417,6275.7 Z" marker-start="none" marker-end="none"/>
    <path d="M 550.569,6290.04 L 543.15,6290.04 L 548.297,6266.56 C 548.395,6266.15 548.508,6265.68 548.637,6265.15 C 548.766,6264.62 548.879,6264.09 548.977,6263.57 C 549.075,6263.04 549.126,6262.57 549.131,6262.16 C 549.119,6261.82 548.985,6261.55 548.73,6261.34 C 548.474,6261.13 548.176,6260.99 547.833,6260.91 C 547.49,6260.83 547.181,6260.81 546.906,6260.86 C 546.672,6260.91 546.432,6260.94 546.187,6260.97 C 545.942,6261 545.702,6261.02 545.468,6261.05 L 545.468,6255.58 C 545.834,6255.57 546.251,6255.53 546.72,6255.47 C 547.19,6255.4 547.746,6255.36 548.389,6255.35 C 549.99,6255.35 551.306,6255.56 552.337,6255.97 C 553.368,6256.39 554.194,6256.97 554.817,6257.72 C 555.439,6258.48 555.938,6259.38 556.312,6260.41 C 556.686,6261.45 557.016,6262.6 557.301,6263.85 C 557.587,6265.11 557.909,6266.44 558.266,6267.85 L 562.949,6290.04 L 555.716,6290.04 L 553.166,6273.27 L 553.073,6273.27 L 550.569,6290.04 Z" marker-start="none" marker-end="none"/>
    <path d="M 565.215,6290.04 L 565.215,6264.07 L 572.583,6264.07 L 572.583,6282.62 C 572.622,6283.32 572.811,6283.84 573.151,6284.21 C 573.491,6284.57 574.029,6284.75 574.763,6284.75 C 575.174,6284.74 575.495,6284.64 575.724,6284.44 C 575.954,6284.25 576.127,6283.99 576.243,6283.67 C 576.359,6283.34 576.453,6282.99 576.525,6282.62 L 576.525,6264.07 L 583.894,6264.07 L 583.894,6282.62 C 583.896,6283.29 584.066,6283.81 584.404,6284.17 C 584.742,6284.53 585.236,6284.73 585.888,6284.75 C 586.348,6284.78 586.715,6284.69 586.99,6284.51 C 587.265,6284.32 587.468,6284.06 587.598,6283.73 C 587.728,6283.4 587.807,6283.03 587.835,6282.62 L 587.835,6264.07 L 595.203,6264.07 L 595.203,6285.35 C 595.187,6286.53 594.875,6287.52 594.27,6288.32 C 593.664,6289.13 592.865,6289.74 591.874,6290.15 C 590.882,6290.56 589.798,6290.77 588.623,6290.77 C 587.57,6290.77 586.581,6290.49 585.656,6289.93 C 584.73,6289.36 583.926,6288.5 583.245,6287.34 L 583.152,6287.34 C 582.866,6288.07 582.444,6288.7 581.889,6289.23 C 581.333,6289.76 580.692,6290.16 579.966,6290.43 C 579.24,6290.7 578.48,6290.81 577.684,6290.77 C 577.011,6290.73 576.327,6290.56 575.635,6290.26 C 574.943,6289.97 574.295,6289.55 573.69,6289.01 C 573.085,6288.47 572.577,6287.81 572.167,6287.02 L 572.074,6287.02 L 572.074,6290.04 L 565.215,6290.04 Z" marker-start="none" marker-end="none"/>
    <path d="M 610.805,6273.75 C 610.812,6273.32 610.805,6272.85 610.783,6272.34 C 610.761,6271.83 610.685,6271.34 610.555,6270.88 C 610.426,6270.41 610.202,6270.02 609.884,6269.72 C 609.566,6269.42 609.114,6269.26 608.529,6269.25 C 607.931,6269.25 607.466,6269.49 607.133,6269.97 C 606.802,6270.45 606.57,6271.06 606.44,6271.79 C 606.31,6272.52 606.247,6273.27 606.253,6274.03 L 606.253,6280.16 C 606.246,6281 606.306,6281.77 606.435,6282.46 C 606.563,6283.15 606.804,6283.7 607.155,6284.12 C 607.506,6284.53 608.01,6284.74 608.668,6284.75 C 609.197,6284.74 609.609,6284.59 609.904,6284.3 C 610.199,6284.01 610.41,6283.64 610.539,6283.19 C 610.666,6282.74 610.744,6282.28 610.772,6281.79 C 610.8,6281.31 610.811,6280.88 610.805,6280.48 L 610.805,6273.75 Z M 598.884,6290.04 L 598.884,6255.35 L 606.253,6255.35 L 606.253,6266.52 L 606.346,6266.52 C 606.929,6265.67 607.553,6265.01 608.217,6264.52 C 608.882,6264.04 609.523,6263.69 610.14,6263.49 C 610.758,6263.3 611.289,6263.21 611.732,6263.23 C 613.068,6263.29 614.159,6263.61 615.007,6264.19 C 615.855,6264.78 616.508,6265.53 616.969,6266.47 C 617.43,6267.4 617.748,6268.42 617.923,6269.53 C 618.099,6270.64 618.183,6271.75 618.174,6272.87 L 618.174,6281.87 C 618.18,6282.91 618.079,6283.95 617.874,6284.99 C 617.668,6286.03 617.326,6286.98 616.848,6287.85 C 616.369,6288.73 615.723,6289.43 614.909,6289.96 C 614.095,6290.49 613.083,6290.76 611.871,6290.77 C 610.593,6290.73 609.448,6290.4 608.436,6289.77 C 607.424,6289.13 606.557,6288.17 605.836,6286.88 L 605.743,6286.88 L 605.743,6290.04 L 598.884,6290.04 Z" marker-start="none" marker-end="none"/>
    <path d="M 622.07,6271.3 C 622.079,6269.82 622.333,6268.56 622.833,6267.53 C 623.333,6266.5 624.026,6265.67 624.909,6265.04 C 625.794,6264.4 626.816,6263.94 627.977,6263.65 C 629.138,6263.37 630.384,6263.23 631.715,6263.23 C 633.594,6263.22 635.232,6263.48 636.628,6264.01 C 638.024,6264.54 639.129,6265.4 639.942,6266.59 C 640.756,6267.77 641.228,6269.34 641.36,6271.3 L 641.36,6281.87 C 641.364,6284.8 640.568,6287.01 638.973,6288.51 C 637.377,6290.01 634.958,6290.77 631.715,6290.77 C 629.8,6290.79 628.121,6290.51 626.679,6289.95 C 625.236,6289.39 624.111,6288.45 623.302,6287.15 C 622.494,6285.84 622.083,6284.08 622.07,6281.87 L 622.07,6271.3 Z M 629.439,6282.43 C 629.435,6282.99 629.505,6283.5 629.647,6283.95 C 629.79,6284.4 630.028,6284.76 630.361,6285.03 C 630.694,6285.3 631.146,6285.44 631.715,6285.44 C 632.284,6285.44 632.736,6285.3 633.069,6285.03 C 633.402,6284.76 633.64,6284.4 633.783,6283.95 C 633.925,6283.5 633.995,6282.99 633.991,6282.43 L 633.991,6270.83 C 633.931,6270.09 633.726,6269.52 633.376,6269.14 C 633.026,6268.76 632.472,6268.56 631.715,6268.56 C 630.958,6268.56 630.404,6268.76 630.054,6269.14 C 629.704,6269.52 629.499,6270.09 629.439,6270.83 L 629.439,6282.43 Z" marker-start="none" marker-end="none"/>
    <path d="M 662.972,6282.34 C 663.032,6283.77 662.834,6285.02 662.376,6286.08 C 661.918,6287.14 661.255,6288.02 660.388,6288.71 C 659.522,6289.4 658.505,6289.92 657.339,6290.26 C 656.174,6290.6 654.913,6290.77 653.558,6290.77 C 652.26,6290.77 651.035,6290.62 649.884,6290.31 C 648.732,6290 647.713,6289.52 646.824,6288.87 C 645.936,6288.22 645.238,6287.39 644.73,6286.37 C 644.223,6285.36 643.964,6284.15 643.954,6282.76 C 643.953,6281.81 644.105,6280.94 644.412,6280.15 C 644.718,6279.35 645.183,6278.6 645.809,6277.88 C 646.6,6277.02 647.538,6276.28 648.621,6275.68 C 649.705,6275.07 650.825,6274.53 651.981,6274.05 C 653.137,6273.56 654.22,6273.06 655.229,6272.55 C 655.534,6272.31 655.772,6272.02 655.943,6271.67 C 656.114,6271.33 656.201,6270.95 656.204,6270.56 C 656.192,6269.72 655.949,6269.1 655.473,6268.7 C 654.997,6268.3 654.358,6268.09 653.557,6268.1 C 653.003,6268.1 652.548,6268.22 652.19,6268.44 C 651.833,6268.67 651.562,6268.97 651.378,6269.35 C 651.173,6269.75 651.038,6270.18 650.972,6270.63 C 650.907,6271.09 650.887,6271.54 650.914,6271.99 L 643.864,6271.99 C 643.788,6269.91 644.147,6268.23 644.943,6266.94 C 645.739,6265.65 646.875,6264.7 648.352,6264.11 C 649.828,6263.52 651.549,6263.22 653.513,6263.23 C 654.879,6263.23 656.154,6263.39 657.339,6263.7 C 658.524,6264.02 659.565,6264.51 660.464,6265.18 C 661.363,6265.85 662.066,6266.7 662.572,6267.75 C 663.079,6268.79 663.336,6270.03 663.345,6271.48 C 663.331,6273.01 663.039,6274.27 662.467,6275.28 C 661.896,6276.28 661.131,6277.12 660.175,6277.78 C 659.218,6278.44 658.155,6279.03 656.987,6279.53 C 655.818,6280.04 654.629,6280.56 653.42,6281.09 C 653.04,6281.27 652.678,6281.47 652.333,6281.71 C 651.988,6281.94 651.705,6282.22 651.484,6282.55 C 651.263,6282.87 651.149,6283.27 651.142,6283.73 C 651.154,6284.49 651.384,6285.04 651.833,6285.39 C 652.281,6285.74 652.872,6285.91 653.605,6285.9 C 654.201,6285.9 654.658,6285.8 654.976,6285.59 C 655.293,6285.39 655.517,6285.12 655.649,6284.79 C 655.803,6284.44 655.903,6284.06 655.946,6283.64 C 655.99,6283.22 656.03,6282.78 656.068,6282.34 L 662.972,6282.34 Z" marker-start="none" marker-end="none"/>
    <path d="M 674.044,6264.07 L 674.044,6290.04 L 666.676,6290.04 L 666.676,6264.07 L 674.044,6264.07 Z M 674.044,6292.59 L 674.044,6298.85 L 666.676,6298.85 L 666.676,6292.59 L 674.044,6292.59 Z" marker-start="none" marker-end="none"/>
    <path d="M 697.593,6264.07 L 697.593,6290.04 L 690.225,6290.04 L 690.225,6271.44 C 690.217,6270.76 690.024,6270.24 689.645,6269.86 C 689.266,6269.49 688.748,6269.29 688.091,6269.26 C 687.633,6269.24 687.277,6269.32 687.025,6269.52 C 686.772,6269.71 686.592,6269.98 686.484,6270.32 C 686.376,6270.66 686.309,6271.03 686.284,6271.44 L 686.284,6290.04 L 678.914,6290.04 L 678.914,6268.7 C 678.923,6266.93 679.486,6265.58 680.606,6264.64 C 681.726,6263.71 683.356,6263.24 685.495,6263.23 C 686.276,6263.24 687.012,6263.44 687.705,6263.83 C 688.398,6264.22 689.001,6264.72 689.513,6265.33 C 690.025,6265.94 690.402,6266.59 690.641,6267.26 L 690.734,6267.26 L 690.734,6264.07 L 697.593,6264.07 Z" marker-start="none" marker-end="none"/>
    <path d="M 701.727,6290.04 L 701.727,6264.07 L 709.095,6264.07 L 709.095,6282.62 C 709.134,6283.32 709.323,6283.84 709.663,6284.21 C 710.003,6284.57 710.541,6284.75 711.275,6284.75 C 711.686,6284.74 712.007,6284.64 712.236,6284.44 C 712.466,6284.25 712.639,6283.99 712.755,6283.67 C 712.871,6283.34 712.965,6282.99 713.037,6282.62 L 713.037,6264.07 L 720.406,6264.07 L 720.406,6282.62 C 720.408,6283.29 720.578,6283.81 720.916,6284.17 C 721.254,6284.53 721.748,6284.73 722.4,6284.75 C 722.86,6284.78 723.227,6284.69 723.502,6284.51 C 723.777,6284.32 723.98,6284.06 724.11,6283.73 C 724.24,6283.4 724.319,6283.03 724.347,6282.62 L 724.347,6264.07 L 731.715,6264.07 L 731.715,6285.35 C 731.699,6286.53 731.387,6287.52 730.782,6288.32 C 730.176,6289.13 729.377,6289.74 728.386,6290.15 C 727.394,6290.56 726.31,6290.77 725.135,6290.77 C 724.082,6290.77 723.093,6290.49 722.168,6289.93 C 721.242,6289.36 720.438,6288.5 719.757,6287.34 L 719.664,6287.34 C 719.378,6288.07 718.956,6288.7 718.401,6289.23 C 717.845,6289.76 717.204,6290.16 716.478,6290.43 C 715.752,6290.7 714.992,6290.81 714.196,6290.77 C 713.523,6290.73 712.839,6290.56 712.147,6290.26 C 711.455,6289.97 710.807,6289.55 710.202,6289.01 C 709.597,6288.47 709.089,6287.81 708.679,6287.02 L 708.586,6287.02 L 708.586,6290.04 L 701.727,6290.04 Z" marker-start="none" marker-end="none"/>
   </g>
  </g>
  <g id="Group_3" fill-rule="nonzero" stroke-linejoin="round" stroke-linecap="round" stroke="none" stroke-width="0.25" fill="#ffffff">
   <g id="Group_4">
    <path d="M 500.833,6230.86 C 501.829,6230.9 502.688,6230.88 503.409,6230.82 C 504.129,6230.76 504.721,6230.6 505.184,6230.34 C 505.647,6230.07 505.989,6229.64 506.211,6229.06 C 506.433,6228.47 506.543,6227.66 506.541,6226.64 C 506.549,6225.92 506.472,6225.23 506.31,6224.57 C 506.147,6223.92 505.853,6223.39 505.428,6222.97 C 505.002,6222.55 504.399,6222.34 503.618,6222.32 L 500.833,6222.32 L 500.833,6230.86 Z M 500.833,6216.07 L 503.525,6216.07 C 504.459,6215.99 505.132,6215.62 505.544,6214.98 C 505.956,6214.34 506.211,6213.48 506.31,6212.4 C 506.41,6211.32 506.453,6210.1 506.437,6208.72 C 506.422,6207.34 506.441,6205.88 506.495,6204.34 C 506.52,6203.99 506.574,6203.65 506.657,6203.32 C 506.74,6202.99 506.841,6202.67 506.959,6202.35 L 515.856,6202.35 L 515.856,6202.81 C 515.675,6202.97 515.523,6203.15 515.398,6203.36 C 515.273,6203.56 515.165,6203.78 515.074,6204.01 C 514.959,6204.59 514.867,6205.34 514.795,6206.28 C 514.724,6207.21 514.664,6208.22 514.616,6209.3 C 514.568,6210.38 514.523,6211.42 514.481,6212.42 C 514.438,6213.43 514.388,6214.29 514.332,6215 C 514.245,6216.21 513.839,6217.2 513.115,6217.96 C 512.39,6218.73 511.451,6219.24 510.298,6219.5 L 510.298,6219.59 C 511.431,6220.11 512.312,6220.76 512.941,6221.52 C 513.569,6222.28 514.007,6223.17 514.255,6224.17 C 514.502,6225.17 514.62,6226.28 514.61,6227.52 C 514.61,6229.82 514.239,6231.67 513.497,6233.08 C 512.755,6234.49 511.642,6235.52 510.158,6236.17 C 508.674,6236.81 506.819,6237.13 504.593,6237.12 L 492.672,6237.12 L 492.672,6202.35 L 500.833,6202.35 L 500.833,6216.07 Z" marker-start="none" marker-end="none"/>
    <path d="M 537.887,6202.35 L 537.887,6209.3 L 526.804,6209.3 L 526.804,6216.81 L 537.006,6216.81 L 537.006,6223.76 L 526.804,6223.76 L 526.804,6230.17 L 537.331,6230.17 L 537.331,6237.12 L 518.643,6237.12 L 518.643,6202.35 L 537.887,6202.35 Z" marker-start="none" marker-end="none"/>
    <path d="M 550.319,6230.86 L 551.201,6230.86 C 551.853,6230.87 552.451,6230.86 552.993,6230.83 C 553.536,6230.8 554.006,6230.72 554.404,6230.59 C 554.861,6230.36 555.2,6230.01 555.42,6229.55 C 555.64,6229.09 555.782,6228.59 555.848,6228.05 C 555.913,6227.51 555.943,6227.01 555.935,6226.55 C 555.945,6225.93 555.879,6225.31 555.738,6224.68 C 555.597,6224.06 555.322,6223.5 554.914,6223.03 C 554.477,6222.69 554.001,6222.47 553.485,6222.35 C 552.971,6222.24 552.443,6222.18 551.902,6222.17 C 551.361,6222.16 550.834,6222.15 550.319,6222.14 L 550.319,6230.86 Z M 550.319,6202.35 L 550.319,6215.89 C 551.345,6215.92 552.383,6215.93 553.434,6215.93 C 554.485,6215.92 555.523,6215.99 556.548,6216.12 C 557.573,6216.26 558.559,6216.55 559.506,6217 C 560.731,6217.59 561.677,6218.4 562.345,6219.44 C 563.013,6220.48 563.475,6221.63 563.731,6222.89 C 563.987,6224.15 564.109,6225.42 564.097,6226.69 C 564.104,6227.63 564.048,6228.55 563.93,6229.43 C 563.812,6230.32 563.588,6231.16 563.258,6231.97 C 562.929,6232.78 562.451,6233.54 561.825,6234.25 C 561.247,6234.89 560.556,6235.41 559.751,6235.79 C 558.947,6236.18 558.086,6236.47 557.169,6236.66 C 556.252,6236.85 555.336,6236.98 554.421,6237.04 C 553.506,6237.1 552.649,6237.13 551.851,6237.12 L 542.158,6237.12 L 542.158,6202.35 L 550.319,6202.35 Z" marker-start="none" marker-end="none"/>
    <path d="M 566.227,6213.98 L 566.227,6210.27 C 566.225,6209.11 566.428,6208.01 566.837,6206.96 C 567.246,6205.92 567.88,6204.99 568.737,6204.17 C 569.595,6203.35 570.695,6202.7 572.038,6202.23 C 573.38,6201.76 574.983,6201.52 576.847,6201.51 C 580.246,6201.52 582.839,6202.42 584.626,6204.2 C 586.414,6205.97 587.315,6208.54 587.328,6211.9 C 587.326,6213.29 587.207,6214.51 586.969,6215.53 C 586.732,6216.56 586.389,6217.45 585.94,6218.2 C 585.491,6218.95 584.949,6219.62 584.313,6220.2 C 583.678,6220.78 582.965,6221.32 582.176,6221.82 C 581.388,6222.33 580.535,6222.84 579.617,6223.36 C 578.7,6223.89 577.73,6224.47 576.708,6225.11 C 576.163,6225.48 575.693,6225.86 575.298,6226.25 C 574.904,6226.65 574.612,6227.09 574.424,6227.6 C 574.236,6228.1 574.178,6228.69 574.251,6229.38 C 574.345,6230.16 574.631,6230.75 575.108,6231.17 C 575.586,6231.58 576.243,6231.76 577.079,6231.7 C 577.744,6231.65 578.258,6231.45 578.62,6231.13 C 578.984,6230.8 579.243,6230.39 579.397,6229.89 C 579.552,6229.4 579.648,6228.87 579.687,6228.31 C 579.726,6227.75 579.753,6227.21 579.768,6226.69 L 587.282,6226.69 C 587.402,6228.89 587.089,6230.83 586.342,6232.52 C 585.595,6234.21 584.433,6235.53 582.857,6236.49 C 581.28,6237.45 579.308,6237.94 576.94,6237.96 C 574.828,6237.96 573.008,6237.59 571.48,6236.85 C 569.952,6236.11 568.775,6235.01 567.947,6233.55 C 567.12,6232.09 566.701,6230.26 566.692,6228.08 C 566.698,6226.56 566.906,6225.24 567.318,6224.12 C 567.729,6222.99 568.309,6221.99 569.057,6221.13 C 569.827,6220.25 570.733,6219.46 571.775,6218.73 C 572.818,6218.01 573.968,6217.29 575.224,6216.58 C 575.952,6216.16 576.661,6215.72 577.35,6215.27 C 578.039,6214.82 578.611,6214.27 579.064,6213.64 C 579.516,6213 579.751,6212.21 579.768,6211.24 C 579.769,6210.65 579.673,6210.09 579.481,6209.56 C 579.288,6209.03 578.99,6208.61 578.586,6208.28 C 578.182,6207.95 577.665,6207.78 577.033,6207.77 C 576.175,6207.78 575.51,6207.95 575.037,6208.3 C 574.564,6208.64 574.236,6209.1 574.051,6209.66 C 573.867,6210.23 573.779,6210.85 573.787,6211.52 L 573.787,6213.98 L 566.227,6213.98 Z" marker-start="none" marker-end="none"/>
   </g>
  </g>
 </g>
</svg>
